<?xml version="1.0" encoding="UTF-8"?>
<svg width="40px" height="40px" viewBox="0 0 40 40" version="1.1" xmlns="http://www.w3.org/2000/svg" xmlns:xlink="http://www.w3.org/1999/xlink">
    <!-- Generator: sketchtool 52.6 (67491) - http://www.bohemiancoding.com/sketch -->
    <title>C120F061-A299-4C83-84E8-F3E2992EC446</title>
    <desc>Created with sketchtool.</desc>
    <g id="Page-1" stroke="none" stroke-width="1" fill="none" fill-rule="evenodd">
        <g id="Landing_1" transform="translate(-640.000000, -2927.000000)">
            <g id="footer" transform="translate(165.000000, 2927.000000)">
                <g id="social" transform="translate(475.000000, 0.000000)">
                    <g id="fb">
                        <circle id="Oval" fill="#F8F8F9" fill-rule="nonzero" cx="20" cy="20" r="20"></circle>
                        <g id="facebook-(1)" transform="translate(16.000000, 12.000000)" fill="#385C8E">
                            <path d="M0.275107692,8.52159375 L2.00196923,8.52159375 L2.00196923,15.7419375 C2.00196923,15.8845 2.11569231,16 2.25606154,16 L5.18403077,16 C5.3244,16 5.43812308,15.8845 5.43812308,15.7419375 L5.43812308,8.555625 L7.42332308,8.555625 C7.5524,8.555625 7.66101538,8.45725 7.67575385,8.32703125 L7.97726154,5.668875 C7.98553846,5.59575 7.96273846,5.5225 7.91455385,5.467625 C7.86633846,5.41271875 7.79732308,5.38128125 7.72489231,5.38128125 L5.43824615,5.38128125 L5.43824615,3.715 C5.43824615,3.21271875 5.70452308,2.958 6.22981538,2.958 C6.30467692,2.958 7.72489231,2.958 7.72489231,2.958 C7.86526154,2.958 7.97898462,2.8424375 7.97898462,2.6999375 L7.97898462,0.25996875 C7.97898462,0.11740625 7.86526154,0.00190625 7.72489231,0.00190625 L5.66443077,0.00190625 C5.64990769,0.0011875 5.61763077,0 5.57006154,0 C5.21255385,0 3.96987692,0.07128125 2.98824615,0.9884375 C1.90061538,2.0048125 2.05181538,3.22171875 2.08793846,3.43271875 L2.08793846,5.38121875 L0.275076923,5.38121875 C0.134707692,5.38121875 0.0209846154,5.49671875 0.0209846154,5.63928125 L0.0209846154,8.2635 C0.0210153846,8.40603125 0.134738462,8.52159375 0.275107692,8.52159375 Z" id="Path"></path>
                        </g>
                    </g>
                </g>
            </g>
        </g>
    </g>
</svg>