<?xml version="1.0" encoding="UTF-8"?>
<svg width="40px" height="40px" viewBox="0 0 40 40" version="1.1" xmlns="http://www.w3.org/2000/svg" xmlns:xlink="http://www.w3.org/1999/xlink">
    <!-- Generator: sketchtool 52.6 (67491) - http://www.bohemiancoding.com/sketch -->
    <title>685BA5B9-4A51-4A37-88FB-DC1DE2C13DC2</title>
    <desc>Created with sketchtool.</desc>
    <g id="Page-1" stroke="none" stroke-width="1" fill="none" fill-rule="evenodd">
        <g id="Landing_1" transform="translate(-700.000000, -2927.000000)">
            <g id="footer" transform="translate(165.000000, 2927.000000)">
                <g id="social" transform="translate(475.000000, 0.000000)">
                    <g id="twitter" transform="translate(60.000000, 0.000000)">
                        <circle id="Oval-Copy-10" fill="#F8F8F9" fill-rule="nonzero" cx="20" cy="20" r="20"></circle>
                        <g transform="translate(13.000000, 14.000000)" fill="#76A9EA" id="Path">
                            <path d="M15.7131679,1.52730994 C15.3584039,1.6809152 14.9901314,1.80209649 14.6122433,1.88982749 C15.0286326,1.50347661 15.3417032,1.02023392 15.518326,0.480847953 C15.5687397,0.326862573 15.3974501,0.193707602 15.2550462,0.276154971 C14.7293431,0.580628655 14.1630754,0.809040936 13.5719319,0.955119883 C13.537635,0.963596491 13.5022482,0.967891813 13.4667445,0.967891813 C13.3590657,0.967891813 13.2543844,0.928853801 13.1720487,0.858 C12.5431046,0.316751462 11.7341898,0.0186637427 10.894365,0.0186637427 C10.5309586,0.0186637427 10.1640487,0.0739707602 9.80379562,0.183064327 C8.68761071,0.521102339 7.8263747,1.42011696 7.55616545,2.52929825 C7.45479319,2.94533626 7.42734793,3.36175439 7.47453041,3.76695906 C7.47994161,3.81352339 7.45740146,3.84602339 7.44350365,3.86126608 C7.41909489,3.8879883 7.38448662,3.90330702 7.34855474,3.90330702 C7.34454501,3.90330702 7.34041849,3.90311696 7.3363309,3.90273684 C4.89304136,3.68109064 2.68979075,2.53173099 1.13241849,0.666421053 C1.05300243,0.571277778 0.900710462,0.582947368 0.837411192,0.688961988 C0.532437956,1.19983918 0.371270073,1.78415497 0.371270073,2.37873392 C0.371270073,3.28995029 0.746199513,4.14867251 1.39745012,4.77468713 C1.12358151,4.71128363 0.858510949,4.6114269 0.612282238,4.47789181 C0.493158151,4.41327193 0.346588808,4.49632749 0.344914842,4.62936842 C0.327863747,5.98304094 1.13954258,7.18755556 2.35546472,7.72994444 C2.3309781,7.73051462 2.30649148,7.7307807 2.28196594,7.7307807 C2.08922628,7.7307807 1.89407299,7.71261111 1.70199513,7.67676608 C1.56784428,7.65175439 1.45514355,7.77601462 1.49679805,7.9030117 C1.89146472,9.10611988 2.95236983,9.99293275 4.22193674,10.1942807 C3.16827251,10.8849152 1.94125547,11.2492193 0.664175182,11.2492193 L0.266043796,11.2489912 C0.143377129,11.2489912 0.0396301703,11.3270673 0.00836982968,11.4430789 C-0.0224233577,11.5573421 0.034296837,11.6778772 0.138900243,11.7372895 C1.57796594,12.5550351 3.21942579,12.9872281 4.88654015,12.9872281 C6.34581022,12.9872281 7.71083212,12.7044591 8.94372749,12.1468275 C10.0739659,11.6356082 11.0727397,10.9048333 11.912292,9.97480117 C12.6943844,9.1084386 13.3059659,8.10831287 13.7299854,7.00224854 C14.1341898,5.94791813 14.3478345,4.82292398 14.3478345,3.7488655 L14.3478345,3.69770175 C14.3477956,3.52524269 14.4276788,3.36297076 14.5670462,3.25250877 C15.0959027,2.83323977 15.556438,2.33969591 15.9358054,1.78559942 C16.0359708,1.6392924 15.8779951,1.45592398 15.7131679,1.52730994 Z"></path>
                        </g>
                    </g>
                </g>
            </g>
        </g>
    </g>
</svg>